<?xml version="1.0" encoding="UTF-8"?> <!-- Generator: Adobe Illustrator 24.0.1, SVG Export Plug-In . SVG Version: 6.00 Build 0) --> <svg xmlns="http://www.w3.org/2000/svg" xmlns:xlink="http://www.w3.org/1999/xlink" id="Capa_1" x="0px" y="0px" viewBox="0 0 1000 863.7" style="enable-background:new 0 0 1000 863.7;" xml:space="preserve"> <style type="text/css"> .st0{opacity:0.14;fill:#8DCFE6;enable-background:new ;} .st1{fill:#B2B2B2;} .st2{fill:#FFFFFF;stroke:#353535;stroke-width:0.25;stroke-miterlimit:10;} .st3{fill:#686868;} .st4{fill:#F9C117;} .st5{fill:#009E82;} .st6{fill:#FF5656;} .st7{fill:#BCD0E2;} .st8{fill:#FFFFFF;} .st9{fill:#133248;} .st10{fill:#44C1BD;} .st11{fill:#EA9C75;} .st12{fill:#1AA4AC;} .st13{fill:#2B4159;} .st14{fill:#31314C;} .st15{fill:#FDAD80;} .st16{fill:#7C4550;} .st17{fill:#011B2E;} .st18{fill:#B7C0C6;} .st19{fill:#8B99A3;} .st20{fill:#E5ECF1;} .st21{fill:#2E3136;} .st22{fill:#F59F08;} .st23{fill:#FFD364;} .st24{fill:#4B5059;} .st25{fill:#35393F;} .st26{fill:#513747;} .st27{fill:#151E35;} .st28{fill:#A49FAE;} .st29{fill:#C4C5C7;} .st30{fill:#1D1D18;} .st31{fill:#995C4B;} .st32{fill:#855243;} .st33{fill:#908B99;} .st34{fill:#304965;} .st35{fill:#1070B1;} .st36{fill:#09578C;} .st37{fill:#583180;} .st38{fill:#7653A5;} .st39{opacity:0.55;} .st40{fill:#2C7EEA;} .st41{fill:#646464;} .st42{fill:url(#path1948_1_);} .st43{fill:url(#path1950_1_);} .st44{opacity:0.4438;fill:url(#path1894_1_);enable-background:new ;} </style> <g> <g id="Layer_2"> <path class="st0" d="M388.9,138.6c0-43.4-138.1-61.7-177.5-43.4c-106.7,49.4,46.7,115.1,3.3,181.5c-6,9.3-30.4,14-40.7,17 c-19.3,6.3-90.1,10.7-110.4,10.7c-54.4-0.3-81.1,86.1-35,97.1c6,1.3,60,22.7,89.4,75.7c10.3,18.7,22.3,38.4-5.7,85.1 c-11.7,19.3-31,48.7-55.7,66c-66,47-68.4,137.8-37,174.8c50.7,60.7,197.1,20.3,276.2,17c51-2.3,153.8-12.3,202.1-29 c30-10.3,78.7-60,110.1-63.7c25.7-3,77.7,14.3,98.4,29.7c10.7,7.7,18.3,36.7,30,43c44,24.7,159.4,40.4,201.8,12.7 c31.7-21,64.4-108.1,50.7-143.8c-5-13.7-49.4-14-50.7-28.7c-2-19.7,46.7-39,56.7-56.4c10.7-19.3,2.7-70.4-10-88.7 c-14-20.3-66-33-87.7-44.7c-35.7-19-145.4-39-140.4-79.1c6.3-51.4,46.7-45,34.7-90.7c-22.7-86.1-69.7-31.7-136.8-52 c-8-2.3-25.7-9.3-28-17c-2-5.7,5.3-18,9.3-22.3c8-9-11.3-14-4.3-23.7c5.7-8.3,3.7-11.3-2.3-19.3c-2.7-4-14-31.4-18.7-31.7 C541,110.3,388.9,69.9,388.9,138.6"></path> </g> <g id="Layer_4"> </g> <g id="Layer_3"> <ellipse class="st1" cx="495" cy="559.9" rx="260.8" ry="19"></ellipse> <ellipse class="st1" cx="838.3" cy="763.7" rx="89.1" ry="19"></ellipse> <ellipse class="st1" cx="263.9" cy="802.4" rx="214.5" ry="30"></ellipse> <g> <rect x="275.9" y="270.4" class="st2" width="441.6" height="283.5"></rect> <rect x="275.9" y="248.4" class="st3" width="441.6" height="23.7"></rect> <circle class="st4" cx="290.2" cy="260.4" r="3.7"></circle> <circle class="st5" cx="302.2" cy="260.4" r="3.7"></circle> <circle class="st6" cx="313.9" cy="260.4" r="3.7"></circle> </g> <g> <g> <path class="st7" d="M470.3,56.2l-19-19l-18,15.3c-7.3-5-15.3-8.7-24-10.7l-2-24.7h-27l-2,24c-8.7,1.7-16.7,4.7-24.4,9.3l-19-16 l-19,19l15.3,18.3c-5,7.3-8.7,15.7-10.7,24l-24.7,2v27l24,2c1.7,8.7,4.7,16.7,9.3,24.4l-16,19l19,19l18.3-15.3 c7.3,5,15.3,8.7,24,10.7l2,24.7h27l2-24c8.7-1.7,16.7-4.7,24.4-9.3l19,16l19-19l-15.3-18.3c5-7.3,8.7-15.7,10.7-24l24.7-2v-27 l-24-2c-1.7-8.7-4.7-16.7-9.3-24.4L470.3,56.2z"></path> </g> <g> <g> <g> <g> <rect x="388.6" y="58.2" class="st8" width="7" height="12"></rect> </g> <g> <rect x="412" y="67.5" transform="matrix(0.4996 -0.8663 0.8663 0.4996 147.7135 397.6258)" class="st8" width="12" height="7"></rect> </g> <g> <rect x="430.7" y="86.6" transform="matrix(0.866 -0.5001 0.5001 0.866 13.4607 230.4839)" class="st8" width="12" height="7"></rect> </g> <g> <rect x="437.6" y="112.3" class="st8" width="12" height="7"></rect> </g> <g> <rect x="433.4" y="135.4" transform="matrix(0.5 -0.866 0.866 0.5 95.9362 449.0761)" class="st8" width="7" height="12"></rect> </g> <g> <rect x="414.3" y="154.4" transform="matrix(0.8661 -0.4998 0.4998 0.8661 -24.2228 230.2918)" class="st8" width="7" height="12"></rect> </g> <g> <rect x="388.6" y="161.3" class="st8" width="7" height="12"></rect> </g> <g> <rect x="360.4" y="156.5" transform="matrix(0.5005 -0.8657 0.8657 0.5005 44.4704 397.1602)" class="st8" width="12" height="7"></rect> </g> <g> <rect x="341.6" y="138" transform="matrix(0.8662 -0.4997 0.4997 0.8662 -24.1867 192.6061)" class="st8" width="12" height="7"></rect> </g> <g> <rect x="334.6" y="112.3" class="st8" width="12" height="7"></rect> </g> <g> <rect x="344.2" y="83.9" transform="matrix(0.5003 -0.8659 0.8659 0.5003 95.954 345.9832)" class="st8" width="7" height="12"></rect> </g> <g> <rect x="363" y="65.2" transform="matrix(0.8664 -0.4994 0.4994 0.8664 13.4028 192.534)" class="st8" width="7" height="12"></rect> </g> </g> <g> <g> <polygon class="st8" points="392.9,117.6 369.3,102.6 372.9,96.6 391.9,108.6 417,82.6 422,87.6 "></polygon> </g> </g> </g> </g> </g> <g> <path class="st9" d="M592.7,249.7c0,0,49.4,0,68.7,0.3c13.3,0,14.3-18.7,9.3-21.7c-15.7-8.7-65.4-13-65.4-13l-33.7,31 C571.7,246.7,573.7,246.4,592.7,249.7z"></path> <path class="st10" d="M639.4,148.6c0,0,12.7-3.7,18.3,13c8.7,25.7,7.7,49,6.7,54c-0.7,2.3-2,10.3-16.3,10.7 c-5.7,0-3.3-12.3-3.3-12.3s-3.7-10.7-7.7-28.4C633.1,168,639.4,148.6,639.4,148.6z"></path> <path class="st10" d="M649.5,150.3l-32.7-10.7l-24.7-1.7l-27,8.3c0,0-9,6-0.7,25.7c8.3,19.7,5,50.4,5,50.4l70,2.3 c0,0,1.3-28.4,6-56.7C646.5,161.3,646.5,153.6,649.5,150.3z"></path> <g> <path class="st11" d="M615.4,147.3c-0.7,3.7-3.7,7-6.7,7.3c-3,0-6,0-9.3,0c-3.3,0-6.3-3.3-6.7-7.3c-0.7-6.3-1.3-12.7-2.3-18.7 c-0.7-3.7,1.7-11.3,6.7-13.3c4.7-2,9.7-2,14,0c5,2.3,7.3,9.7,6.7,13.3C617.1,135,616.4,141,615.4,147.3z"></path> </g> <polygon class="st12" points="603.8,155 598.1,164.6 587.1,151 588.7,144 592.4,141.3 592.4,146.6 "></polygon> <polygon class="st12" points="604.4,155 610.4,164.6 620.4,152 618.8,144.3 616.1,141.3 615.1,147.3 "></polygon> <path class="st13" d="M602.8,103.3c-2.7,0-5,1.3-6,3.3h-2.7c-3.3,0-5.7,2.7-5.7,5.7v14h4v-5.7c0-2.3,2-4,4-4h2.3h-3.7h2.3 c4,0,7.3-3.3,7.3-7.3v-6H602.8z"></path> <path class="st11" d="M595.4,132c0,2-1.7,3.3-3.3,3.3h-0.3c-2,0-3.3-1.7-3.3-3.3v-4.3c0-2,1.7-3.3,3.3-3.3h0.3 c1.3,0,2.7,0.7,3.3,2"></path> <path class="st14" d="M599.4,108.9v-5.7h2.3h6h3.7c4,0,7.3,3.3,7.3,7.3v5.7h-2h-6h-3.7C602.8,116.3,599.4,112.9,599.4,108.9z"></path> <path class="st11" d="M614.1,127.6c0-2,1.7-3.3,3.3-3.3h0.3c2,0,3.3,1.7,3.3,3.3v4.3c0,2-1.7,3.3-3.3,3.3h-0.3 c-1.3,0-2.7-0.7-3.3-2"></path> <path class="st15" d="M618.1,137.3c0,3-2.3,8-6,9.3c-5,2-11,2-16,0c-3.7-1.7-6-6.7-6-9.3c0-8.3,0-16.7,0-25c0-3,3-5.3,6.7-5.3 c5,0,10,0,15,0c3.7,0,6.7,2.7,6.7,5.3C618.1,120.6,618.1,128.6,618.1,137.3z"></path> <path class="st14" d="M607.1,103.3c2.7,0,4.7,1.3,6,3.3h2.7c3.3,0,5.7,2.7,5.7,5.7v14h-4v-5.7c0-2.3-2-4-4-4l0,0h1.3h-6.7 c-4,0-7.3-3.3-7.3-7.3v-6H607.1z"></path> <path class="st14" d="M600.8,110.3c0-0.3,0-1,0-1.3v-5.7h-2.3h-3c-4,0-7.3,3.3-7.3,7.3v5.7h1.7h0.7h3c0.7,0,1,0,1.3,0 C595.8,113.3,598.1,110.9,600.8,110.3z"></path> <path class="st16" d="M536,344.4c-0.7,1,0,3.3,0,3.3s13.3,1.3,17.7,0.7c1-0.3,3-1.3,4.7-2.3c0.3,0,0.7-1.3,1-1.3 c0.7-0.3,0.7,0.3,1.3,0c1.3-0.7,2-1.3,2-1.3c1.3-6-0.3-8.7-0.3-8.7s-11.3-3.7-13.3-1.3C543.7,339.8,537.7,342.4,536,344.4z"></path> <path class="st16" d="M660.5,337.8l1,10l10,1c0,0,0.7-1.3,1.7-1.3c0.7,0,1.3,1.7,2.7,1.7c2,0.3,4.7,0.3,5.3,0.7 c2,0,20.3,2,20.3,2s0.7-2,0-2.7c-0.3-0.3-2-1.3-3-1.7c-5-2-19.7-8-21.7-13.3C674.1,327.8,660.5,337.8,660.5,337.8z"></path> <g> <path class="st15" d="M645.5,210.3l-34,14c0,0,24.4,3.3,39.4,0.3C660.8,222.7,645.8,210,645.5,210.3z"></path> </g> <path class="st9" d="M567.7,231.7c0,0-3.3,31-2.7,47.4c0.3,12.3,0.3,36.4-2.7,56.4c0,1.3-16,0.3-16,0.3s-5.7-77.1-7.3-89.7 C537.4,233.4,542.4,224.3,567.7,231.7z"></path> <path class="st17" d="M667.8,239c0,0-5,8-19,10c-5.3,0.7,8,90.4,8,90.4l20.7-6.7l-4-99.1L667.8,239z"></path> <path class="st17" d="M610.4,249c0,0-27,4-45,5.7c-6.7,0.7-12.3-17.7-13.3-18.7c-4.7-5-9.7-4.3-9.3-4.7c4-4.3,24.4-8,45.4-13.3 c21-5,24.4-2,24.4-2L610.4,249z"></path> <path class="st17" d="M588.1,218.3c-21,5-41.7,9-45.4,13.3c0,0,4.7-0.3,9.3,4.7c0.3,0.3,1.3,6,2.3,8.3 c-3.3-6.3,46.4-23.7,57-28.4C609.8,215.3,603.8,214.7,588.1,218.3z"></path> <polygon class="st17" points="565.1,248.7 562.7,309.4 560.7,323.4 560.4,309.4 561.1,300.7 556.1,287.1 553.7,255.4 557.4,256.7 556.7,243 "></polygon> <path class="st9" d="M666.8,231.7l5,1.3l2,72.7l-10.7,26l5-17.7l-2-36.7c0,0-7.3,17.7-7.3,16.7c0-1,6.3-38.4,6.3-38.4 s-7,5.7-6.3,5.7C659.5,261,663.1,235,666.8,231.7z"></path> <path class="st10" d="M580.1,146.6c0,0-11-8.7-21.7,7.3c-15.7,23-22.3,48-25,55c-2,5.3-0.7,21,5.7,27.4 c1.7,1.7,10.7,0.3,10.7,0.3l6-4l-2.7-5v-4c0,0,7.7-18.7,17-36.4C580.1,169.6,580.1,146.6,580.1,146.6z"></path> <g> <path class="st15" d="M553.4,217.3l35.4,2c0,0-34,15.7-35,13C547.4,217,553.4,217.3,553.4,217.3z"></path> <g> <path class="st15" d="M573.1,216.3c2-1,2-1,2-1s2,2.3,4.7,2.7c1.3,0.3,5.7,0.3,5.7,0.3h6.7h3c0,0,1.7-0.3,2,0 c1.3,0.7,0,1.3,0,1.3l-11.7,1.7l11.3,1.3c0,0,1.3,0.3,1.3,1.3c0,0.7-0.3,0.7-0.3,0.7l-13,1.3l5.7,1.3c0,0,1.3,0.3,1.3,1.3 c0,0.7,0,1,0,1l-12-1.3C580.1,228.4,571.1,217.3,573.1,216.3z"></path> <path class="st15" d="M585.7,223.3l8,1.3c0,0,1.7,0,2.7,0.7c1,0.7,0.3,1.3,0.3,1.3l-12-1L585.7,223.3z"></path> </g> </g> <g> <path class="st18" d="M635.1,229.7L635.1,229.7v-2.3h-69.7v2.3l0,0l0.3,0.3c1.3,2,3.3,2.3,5.7,2.3h57.7c2.3,0,4.7-0.3,5.7-2.3 L635.1,229.7z"></path> <g> <rect x="577.1" y="227.7" class="st19" width="46" height="1.7"></rect> </g> <g> <path class="st20" d="M635.1,227.7V182c0-1.3-1-2-2-2h-65.4c-1.3,0-2,1-2,2v45.7H635.1z"></path> <path class="st18" d="M604.4,203.7c0,2.3-2,4.3-4.3,4.3s-4.3-2-4.3-4.3s2-4.3,4.3-4.3S604.4,201.3,604.4,203.7z"></path> </g> </g> <polygon class="st12" points="549.1,235 546.4,219.7 550.4,215.3 559.4,216.7 557.7,234 "></polygon> <polygon class="st12" points="657.5,224 658.1,218.3 646.8,208 640.8,210.7 648.8,226 "></polygon> </g> <g> <g> <path class="st21" d="M203.1,522.6h46.4c1.7,0,3-1.3,3-3s-1.3-3-3-3h-46.4c-1.7,0-3,1.3-3,3S201.5,522.6,203.1,522.6 L203.1,522.6z"></path> </g> <path class="st22" d="M168.8,403.8c0-31.7,25.7-57.7,57.7-57.7s57.7,25.7,57.7,57.7c0,2-1.3,28.4-23,56.4 c-6.3,8.3-5.3,25.4-5.3,25.4c-9,0-16.3,0-25,0c-2.7,0-5.3,0-8,0c-9,0-16.3,0-25.4,0c0,0,1.3-17-5-25.4 C170.1,432.5,168.8,405.8,168.8,403.8z"></path> <path class="st4" d="M207.8,478.2c-0.3-7.3-2-21-6.7-27c-20.7-26.7-21.7-51.7-21.7-52c0-27.7,22.3-50,50-50s50,22.3,50,50 c0,0.3-1,25.4-21.7,52c-4.7,6-6.3,19.7-6.7,27H207.8L207.8,478.2z"></path> <g> <g> <path class="st23" d="M271.5,408.5c-2.7,0-4.7-2-4.7-4.7c0-22.3-18.3-41-41-41c-2.7,0-4.7-2-4.7-4.7s2-4.7,4.7-4.7 c27.7,0,50,22.3,50,50C276.2,406.5,274.2,408.5,271.5,408.5z"></path> </g> </g> <g> <g> <g> <polygon class="st24" points="211.5,490.2 204.1,430.8 207.1,430.2 214.5,489.2 "></polygon> </g> </g> <g> <g> <polygon class="st24" points="240.8,490.2 248.2,430.8 245.2,430.2 237.8,489.2 "></polygon> </g> </g> <g> <path class="st24" d="M245.8,438.2c-2,0-3-2-3.7-3.3c-0.3-0.7-0.7-2-1.3-2c-0.3,0-1,1.3-1.3,2c-0.7,1.3-1.7,3.3-3.7,3.3 c-2,0-3-2-3.7-3.3c0-0.3-0.3-1-0.7-1.3c-1,2-3,4.7-5.3,4.7c-2,0-3-2-3.7-3.3c-0.3-0.7-0.7-2-1.3-2c-0.3,0-1,1.3-1.3,2 c-0.7,1.3-1.7,3.3-3.7,3.3s-3-2-3.7-3.3c-0.3-0.7-0.7-2-1.3-2c-0.3,0-1,1.3-1.3,2c-0.7,1.3-1.7,3.3-3.7,3.3v-2.7 c0.3,0,1-1.3,1.3-2c0.7-1.3,1.7-3.3,3.7-3.3c2,0,3,2,3.7,3.3c0.3,0.7,0.7,2,1.3,2c0.3,0,1-1.3,1.3-2c0.7-1.3,1.7-3.3,3.7-3.3 s3,2,3.7,3.3c0.3,0.7,0.7,2,1.3,2c0.7,0,2.7-2,3.7-4.7c0.3-0.7,0.7-0.7,1.3-0.7c2,0,3,2,3.7,3.3c0.3,0.7,0.7,2,1.3,2 c0.3,0,1-1.3,1.3-2c0.7-1.3,1.7-3.3,3.7-3.3s3,2,3.7,3.3c0.3,0.7,0.7,2,1.3,2L245.8,438.2L245.8,438.2z"></path> </g> </g> <path class="st21" d="M255.5,486.2v30c0,2-1.7,3.7-3.7,3.7h-51c-2,0-3.7-1.7-3.7-3.7v-30H255.5z"></path> <g> <path class="st21" d="M256.8,491.9h-61c-1.7,0-3-1.3-3-3s1.3-3,3-3h61c1.7,0,3,1.3,3,3C259.8,490.5,258.5,491.9,256.8,491.9z"></path> </g> <g> <path class="st24" d="M229.8,490.5h-34c-1,0-1.7-0.7-1.7-1.7s0.7-1.7,1.7-1.7h33.7c1,0,1.7,0.7,1.7,1.7 C231.5,489.9,230.8,490.5,229.8,490.5z"></path> </g> <g> <path class="st21" d="M256.8,501.9h-61c-1.7,0-3-1.3-3-3c0-1.7,1.3-3,3-3h61c1.7,0,3,1.3,3,3 C259.8,500.5,258.5,501.9,256.8,501.9z"></path> </g> <g> <path class="st21" d="M256.8,511.9h-61c-1.7,0-3-1.3-3-3c0-1.7,1.3-3,3-3h61c1.7,0,3,1.3,3,3 C259.8,510.6,258.5,511.9,256.8,511.9z"></path> </g> <g> <path class="st24" d="M229.8,499.9h-34c-1,0-1.7-0.7-1.7-1.7s0.7-1.7,1.7-1.7h33.7c1,0,1.7,0.7,1.7,1.7 C231.5,499.2,230.8,499.9,229.8,499.9z"></path> </g> <g> <path class="st24" d="M229.8,509.9h-34c-1,0-1.7-0.7-1.7-1.7s0.7-1.7,1.7-1.7h33.7c1,0,1.7,0.7,1.7,1.7 C231.5,509.2,230.8,509.9,229.8,509.9z"></path> </g> <rect x="205.1" y="491.9" class="st25" width="29" height="3"></rect> <rect x="205.1" y="501.5" class="st25" width="29" height="3"></rect> <rect x="205.1" y="511.2" class="st25" width="29" height="3"></rect> </g> <g> <g> <rect x="329.6" y="762.7" transform="matrix(0.8907 -0.4547 0.4547 0.8907 -314.4612 237.2001)" class="st26" width="12.7" height="19.3"></rect> <path class="st13" d="M309.2,693.3l31.7,69l-14,6.3c0,0-40.4-66.4-36.7-71.7C293.5,691.3,307.2,689.7,309.2,693.3z"></path> <path class="st27" d="M347.9,783.4l-8.3,4.3l-1.3-2.7l-2.3,4.3l-21,10.7c0,0-1.3-3.7,12.3-11.3c3.7-2,3.7-8,3.7-8s1-2.7,5.7,0 c1.3,0.7,8-5,8-5S347.9,780.1,347.9,783.4z"></path> </g> <g> <g> <path class="st24" d="M100.7,729.4c-2.3,0-5.7-0.7-8.7-3.3c-4.3-4-6.3-10.7-5.7-20.3c0.3-6.7,3-13,5.7-20 c4.7-11.7,9.7-25,7-42.7l5-0.7c3,19-2.7,33.7-7.3,45.4c-2.7,7-5,12.7-5.3,18.7c-0.7,8,0.7,13.3,4,16c3,2.7,6.7,2,6.7,2l1,5 C102.7,729,102.1,729.4,100.7,729.4z"></path> </g> <g> <g> <path class="st28" d="M139.8,769.7l5,7.7l-41.7,13.3c0,0-2.7-2.7,7.3-8C122.4,776.4,139.8,769.7,139.8,769.7z"></path> <path class="st28" d="M147.1,769.7l-5,7.7l41.7,13.3c0,0,2.7-2.7-7.3-8C164.4,776.4,147.1,769.7,147.1,769.7z"></path> </g> <rect x="139.1" y="747" class="st28" width="8.7" height="31"></rect> <g> <path class="st29" d="M139.1,771.4l4.3,7.3l-35.7,12.7c0,0-2.3-2.7,6.3-7.7C124.4,777.4,139.1,771.4,139.1,771.4z"></path> <path class="st29" d="M147.8,771.4l-4.3,7.3l35.7,12.7c0,0,2.3-2.7-6.3-7.7C162.4,777.4,147.8,771.4,147.8,771.4z"></path> </g> <ellipse transform="matrix(3.327781e-02 -0.9994 0.9994 3.327781e-02 -688.5193 876.339)" class="st30" cx="108.7" cy="794.1" rx="3" ry="3"></ellipse> <circle class="st30" cx="177.8" cy="794.1" r="3"></circle> <circle class="st24" cx="101.4" cy="794.1" r="3"></circle> <ellipse class="st24" cx="185.1" cy="794.1" rx="3" ry="3"></ellipse> </g> <rect x="140.1" y="736" class="st24" width="6.3" height="11.3"></rect> <path class="st24" d="M151.1,730c0,3.3-2.7,6.3-6.3,6.3h-3.3c-3.3,0-6.3-2.7-6.3-6.3l0,0c0-3.3,2.7-6.3,6.3-6.3h3.3 C148.4,723.7,151.1,726.7,151.1,730L151.1,730z"></path> <path class="st31" d="M190.5,724.4c0-0.7,0.3-5.3,0.3-6c0-5-3.3-9-7.3-9h-80.4c-4,0-7.3,4-7.3,9c0,0.7,0,5.3,0.3,6H190.5z"></path> <path class="st24" d="M95.1,726.7c0,1.7,1,2.7,2,2.7h92.4c1,0,2-1.3,2-2.7l0,0c0-1.7-1-2.7-2-2.7H97.1 C96.1,724,95.1,725.4,95.1,726.7L95.1,726.7z"></path> <g> <path class="st31" d="M99.4,678c2,0,14.7,0.3,16.7,0.3c14,0,25.7-2.3,26.4-6c2.7-14,2.7-28.7,0.3-42.7c-0.7-3.3-12.7-6-26.7-6 c-2.3,0-15,0.3-17,0.3C103.4,641.6,103.4,660,99.4,678z"></path> <path class="st24" d="M97.4,624.3c-1.7,0-2.7,0.7-2.3,1.7c4,16.7,4,33.7,0.3,50.4c0,1,1,1.7,2.3,1.7l0,0c1.3,0,3-0.7,3-1.7 c3.7-16.7,3.3-34-0.3-50.4C100.7,625,99.1,624,97.4,624.3L97.4,624.3z"></path> <path class="st32" d="M97.1,677.7c0.3,0,3.3,0.3,3.7,0.3c3,0,6-2.7,6.7-6c2.7-14,2.3-28.4,0-42.4c-0.7-3.3-4-6-7-6 c-0.7,0-3.3,0-3.7,0.3C100.7,641.6,101.1,660,97.1,677.7z"></path> </g> </g> <g> <g> <path class="st24" d="M424.6,729.4c2.3,0,5.7-0.7,8.7-3.3c4.3-4,6.3-10.7,5.7-20.3c-0.3-6.7-3-13-5.7-20 c-4.7-11.7-9.7-25-7-42.7l-5-0.7c-3,19,2.7,33.7,7.3,45.4c2.7,7,5,12.7,5.3,18.7c0.7,8-0.7,13.3-4,16c-3,2.7-6.7,2-6.7,2l-1,5 C422.3,729,423.3,729.4,424.6,729.4z"></path> </g> <g> <path class="st24" d="M389.3,729.4c2.3,0,5.7-0.7,8.7-3.3c4.3-4,6.3-10.7,5.7-20.3c-0.3-6.7-3-13-5.7-20 c-4.7-11.7-9.7-25-7-42.7l-5-0.7c-3,19,2.7,33.7,7.3,45.4c2.7,7,5,12.7,5.3,18.7c0.7,8-0.7,13.3-4,16c-3,2.7-6.7,2-6.7,2l-1,5 C386.9,729,387.9,729.4,389.3,729.4z"></path> </g> <g> <g> <path class="st28" d="M385.6,769.7l-5,7.7l41.7,13.3c0,0,2.7-2.7-7.3-8C402.9,776.4,385.6,769.7,385.6,769.7z"></path> <path class="st28" d="M377.9,769.7l5,7.7l-41.7,13.3c0,0-2.7-2.7,7.3-8C360.6,776.4,377.9,769.7,377.9,769.7z"></path> </g> <rect x="377.3" y="747" class="st28" width="8.7" height="31"></rect> <g> <path class="st29" d="M385.9,771.4l-4.3,7.3l35.7,12.7c0,0,2.3-2.7-6.3-7.7C400.9,777.4,385.9,771.4,385.9,771.4z"></path> <path class="st29" d="M377.6,771.4l4.3,7.3l-35.7,12.7c0,0-2.3-2.7,6.3-7.7C362.6,777.4,377.6,771.4,377.6,771.4z"></path> </g> <ellipse class="st30" cx="416.3" cy="794.1" rx="3" ry="3"></ellipse> <circle class="st30" cx="347.6" cy="794.1" r="3"></circle> <ellipse class="st24" cx="423.6" cy="794.1" rx="3" ry="3"></ellipse> <ellipse class="st24" cx="340.2" cy="794.1" rx="3" ry="3"></ellipse> </g> <rect x="378.6" y="736" class="st24" width="6.3" height="11.3"></rect> <path class="st24" d="M373.9,730c0,3.3,2.7,6.3,6.3,6.3h3.3c3.3,0,6.3-2.7,6.3-6.3l0,0c0-3.3-2.7-6.3-6.3-6.3h-3.3 C376.6,723.7,373.9,726.7,373.9,730L373.9,730z"></path> <path class="st31" d="M334.6,724.4c0-0.7-0.3-5.3-0.3-6c0-5,3.3-9,7.3-9H422c4,0,7.3,4,7.3,9c0,0.7,0,5.3-0.3,6H334.6z"></path> <path class="st24" d="M430,726.7c0,1.7-1,2.7-2,2.7h-92.4c-1,0-2-1.3-2-2.7l0,0c0-1.7,1-2.7,2-2.7H428 C429.3,724,430,725.4,430,726.7L430,726.7z"></path> <g> <path class="st31" d="M425.6,678c-2,0-14.7,0.3-16.7,0.3c-14,0-25.7-2.3-26.4-6c-2.7-14-2.7-28.7-0.3-42.7 c0.7-3.3,12.7-6,26.7-6c2.3,0,15,0.3,17,0.3C421.6,641.6,421.6,660,425.6,678z"></path> <path class="st24" d="M427.6,624.3c1.7,0,2.7,0.7,2.3,1.7c-4,16.7-4,33.7-0.3,50.4c0,1-1,1.7-2.3,1.7l0,0c-1.3,0-3-0.7-3-1.7 c-3.7-16.7-3.3-34,0.3-50.4C424.6,625,426,624,427.6,624.3L427.6,624.3z"></path> <path class="st32" d="M427.3,677.3c-0.3,0-3.3,0.3-3.7,0.3c-3,0-6-2.7-6.7-6c-2.7-14-2.3-28.4,0-42.4c0.7-3.3,4-6,7-6 c0.7,0,3.3,0,3.7,0.3C423.3,641.6,423.3,660,427.3,677.3z"></path> </g> </g> <g> <rect x="252.2" y="655" class="st28" width="25" height="136.8"></rect> <polygon class="st33" points="252.2,704 252.2,655 276.9,655 276.9,686.7 "></polygon> <rect x="183.1" y="650.3" class="st28" width="162.8" height="8"></rect> <rect x="218.8" y="784.1" class="st33" width="91.7" height="8"></rect> </g> <g> <path class="st13" d="M402.9,637.6c0,0,8.3,25.4,13.7,33c4,5.3,7.3,17,6.7,22c-0.3,5-1,21.7-9.7,22.3c-12.7,1.3-37-0.3-37-0.3 s-14-36-13.7-40.7c0.3-4.7,3.3-10.3,4-12.7c0.7-2.3-3.7-11.3-3.7-11.3L402.9,637.6z"></path> <g> <path class="st13" d="M375.3,689l-68,35.4c0,0-23.7-24-14-30.4c19-12.3,73.7-32.4,73.7-32.4L375.3,689z"></path> </g> <polygon class="st26" points="305.2,787.4 304.2,805.8 290.2,805.4 293.9,784.7 "></polygon> <path class="st34" d="M412.6,715.4l-89.7-0.3c0,0-16.3-7.3-8.7-17c5-6,67.4-18,85.4-18.3C436,679.3,412.6,715.4,412.6,715.4z"></path> <path class="st34" d="M336.2,713.4l-29.7,81.4l-15.7-6.7c0,0,13.3-84.1,23-86.4C324.2,699.3,336.9,710.4,336.2,713.4z"></path> <path class="st27" d="M304.2,807.8l-9.7,0.3v-3l-4,3l-24.7,0.7c0,0,0.3-4,16.7-5.3c4.3-0.3,7-6,7-6s2-2,5.3,2.3 c0.7,1,9.7-1.3,9.7-1.3S305.5,804.8,304.2,807.8z"></path> <path class="st13" d="M377.3,682c4.3,14.3,7.3,25,7.3,25l33.4-3c3.7-10.7,4-24.4-18.7-24.4C394.6,680,386.6,680.7,377.3,682z"></path> <path class="st11" d="M297.9,585.9l3.3-10.7l-3-6l-7.7,2.7l-5,2.7l-1.3,4c0,0,3,8.3,7.3,10C295.9,590.9,297.9,585.9,297.9,585.9 z"></path> <path class="st11" d="M352.9,538.2c0,0-0.3,11.3,8.3,19.3c8.7,8-23,11.3-23,11.3s5.7-12.3-11.7-13.3 C317.2,555.2,349.2,534.9,352.9,538.2z"></path> <path class="st13" d="M323.6,575.6c0,0-12.3,60-24.4,69c-11.3,8.7-7.3-5.7-6-17c1.3-11.3,9.7-44.4,12-48.4 C308.2,575.6,319.9,569.9,323.6,575.6z"></path> <path class="st35" d="M378.9,560.6c0,0-14.3,0.7-30.4,4c-14.7,3-29.4,8.3-31.4,10.3c-4.3,4.3,3,34.4,20.3,51.4 c17.3,17,25,34,25,34s49,4.7,52,3c-4.7,2.7-6.3-28-7.7-30c-4-6.3-17.7-48.7-15.3-57.4C394.3,567.6,387.3,558.6,378.9,560.6z"></path> <path class="st34" d="M347.2,637.6c0,0-10.7-20-11.3-29.4s-0.3-40.7-0.3-40.7l-22,6.3c0,0,4,34.4,9,41.7 C327.6,623,347.2,637.6,347.2,637.6z"></path> <rect x="385.1" y="637" transform="matrix(4.192050e-02 -0.9991 0.9991 4.192050e-02 -290.5444 1021.9761)" class="st31" width="5" height="51"></rect> <rect x="367.7" y="660.9" transform="matrix(4.186895e-02 -0.9991 0.9991 4.186895e-02 -304.8018 1005.8681)" class="st13" width="8.7" height="2"></rect> <polygon class="st13" points="388.9,667 386.9,667 387.6,658.7 389.3,658.7 "></polygon> <polygon class="st13" points="410.6,668 408.6,668 409.3,659.3 411,659.3 "></polygon> <path class="st34" d="M301.2,640c0,0-2.7,8.7-9,9c-6.3,0.3-10-12.3-9-29.7c1-17.3,4-31.4,4-31.4l10-1.3 C296.9,586.6,304.2,636.3,301.2,640z"></path> <path class="st15" d="M347.9,529.6c-3.3-7-19.3-13.3-22-9.3c-1,1.7-2,3.3-2.3,5c-0.3,2-0.7,4-1,5.7c0,0.3,0,0.7,0,1.3l0,0v22 c0,0.7,0.7,1.3,1.3,1.3h14.3c0.7,0,8.7-7,10-8.7c1.7-1.7,3.3-3,4-4.3C353.2,540.9,350.9,535.9,347.9,529.6z"></path> <polygon class="st15" points="328.6,526.6 333.9,535.9 339.2,544.9 328.6,544.9 318.2,544.9 323.6,535.9 "></polygon> <path class="st9" d="M353.6,543.6l-3.3-19.7c0,0-1-3.3-11.3-5c-10.3-1.7-14,0-14,0l-4.7,2.7l2.3,5l12-1l-2,7.7l2.7,8.7h3v0.3 c0,0-0.7-4.7,2-7c2.7-2.3,5.3,0.7,4,3.7c-1,3-0.7,4-0.7,4l4,3.3L353.6,543.6z"></path> <polygon class="st36" points="346.2,561.3 346.2,566.3 341.9,573.3 335.6,567.9 337.6,560.6 "></polygon> <polygon class="st36" points="362.3,556.6 365.6,561.9 354.9,571.3 346.2,566.3 346.2,561.3 "></polygon> <path class="st34" d="M375.9,556.9l-12.7,1c0,0-12.7,20.3,1,69.7c8.7,31.4,21,72.1,21,72.1l43.7-4c0,0-16-27.7-18.7-54.7 c-2-21.7-1-44-3.3-50.7c-3-8.7,2-17.3-1.3-22C396.3,555.2,378.9,556.6,375.9,556.9z"></path> <path class="st11" d="M326.2,648.3c0,0-2,0.7-5.3,1.3c-2,0.3-5.3,1-5.3,1l-9-1l-4-1l2.3-5.3l5.3-4c0,0,5.3-4,6.7-3.3 c1.3,0.7,8.3,2.3,8.3,2.3L326.2,648.3z"></path> <path class="st13" d="M388.9,653c0,0-2.3,7.7-17,5c-15-2.7-47.7-9.3-47.7-9.3l-0.7-14.3c0,0,37.7,3.7,44.4,4.7 C374.3,639.6,388.9,637.3,388.9,653z"></path> <path class="st13" d="M375.6,650.3l12.7,5c0,0,17.3-42.4,20.3-57.4c1.7-8,1.7-27.4-4.3-32.7c-8.7-8-20-8-20-8s-6.3,23.3-7,31.4 C376.6,596.6,375.6,650.3,375.6,650.3z"></path> </g> <g> <path class="st37" d="M175.5,608.3l-5,50.7v3l-15-1c0,0,4.3-40.4,5-42.4c0.7-2,2-19,2-22c-0.3-3,5.3-23.7,11.3-15 C181.8,593.9,175.5,608.3,175.5,608.3z"></path> <ellipse transform="matrix(0.2186 -0.9758 0.9758 0.2186 -440.6078 575.4679)" class="st9" cx="139" cy="562.9" rx="19.7" ry="20"></ellipse> <path class="st9" d="M176.8,556.6c-2,8-10,13.3-18,11.3l-2-8c-8-2-13.3-10-11.3-18l1.3-5.3c2-8,10-13.3,18-11.3l3.7,0.7 c8,2,13.3,10,11.3,18L176.8,556.6z"></path> <path class="st15" d="M176.1,533.6c-0.3,1.3-0.7,2.7-1.3,4c-3.7,9-11,15-17.3,14.3c-1.3,4.3-3,8-4.7,11c-2,3.3-7.3,6.3-7.3,6.3 c-2.7,6.3,16.3,20.3,17.3,19.7c2.3-1.3,4.7-9.3,0.7-14c-2-2.3-4-4.7-4-6.3c0-5.3,1.3-6.3,4-8.7c4.3-3.3,9.3-2,9.3-2 c0.7,0,1,0,1.3-0.3c0.7-1,1-2,1.3-3l2.7-12C178.8,539.6,178.1,536.2,176.1,533.6z"></path> <path class="st38" d="M149.8,668.7c0,0,6.7,6,8.3,6.3c2.3,0.7,9.3-2.3,9.3-2.3s-2-30.7-1.3-42.7c0.7-12,3.7-15.7,3.3-19.3 c-0.7-6-1-7.3-2.7-12c-1.7-4.7-3.7-12-5-13c-2-1.3-4.3-3-6-5.3C155.1,579.3,149.8,668.7,149.8,668.7z"></path> <path class="st38" d="M164.1,571.6c0,0,9.3,8,9.3,11c0,3,2,18.7,1,31.7c-1,13-2.3,16.3-2,25.7s2.7,11.3,3,23c0,9-0.7,17-0.7,17 s-4,1.3-7.3-1.7s-4.7-34-4.3-42c0.7-8,3.3-28.4,2.7-34c-0.7-5.3-4-22-5-23.7C158.1,574.6,163.4,571.9,164.1,571.6z"></path> <path class="st37" d="M164.1,570.9c0,0-0.3,0.7-1,1.3c-1,1-2.3,2.7-2.3,2.7s1.7-1,2.3,0.7c1,1.7,2,6,2,6s2.7-5.7,2-7.3 C165.1,570.9,164.1,570.9,164.1,570.9z"></path> <ellipse transform="matrix(0.2186 -0.9758 0.9758 0.2186 -471.718 589.5733)" class="st9" cx="132.3" cy="589.3" rx="20.3" ry="21"></ellipse> <polygon class="st15" points="195.8,773.1 191.8,803.1 208.8,810.8 218.2,812.8 201.5,800.4 207.1,773.4 "></polygon> <path class="st16" d="M190.8,807.8l3.7,1l2.3-2.3l13.3,6.7l12,2.7c0,0,0-1-0.3-1.3c-1.3-2-10-6-10-6s0,2.7-1.3,2.7 s-11.7-5.3-14-6.7c-4-2.7-5-4-5.3-4C191.1,800.8,190.8,807.8,190.8,807.8z"></path> <polygon class="st15" points="236.5,731.4 249.8,757.1 268.5,756.1 277.9,753.4 257.2,750.1 246.2,728.4 "></polygon> <path class="st16" d="M251.2,761.4l3.7-0.7l1.3-3l16.7-0.3l10-2.3c0,0-1.3-1.3-2-1.7c-2.3-1-10-1.3-10-1.3s0.7,2,0,2.7 c-1,0.7-12.7,1-15.3,0.7c-4.7-0.3-6.3-1.3-6.3-1C248.2,755.4,251.2,761.4,251.2,761.4z"></path> <path class="st34" d="M138.4,655l10,4.3l4.3,13l64.4-10.7c0,0,6.7-2,10.7,8.3c6,14.7,21,60.7,21,60.7l-9.7,10l-30-51.7 c0,0-61.4,29-81.7,22.7c-7.7-2.3-13.7-16-12.7-30c1-11,3-21,3-21L138.4,655z"></path> <path class="st13" d="M147.4,711.4l49.4-3.7l-4.3,76.1l14.3,0.3l10.7-89.1c0,0-3-13.3-12.3-11.3 C195.8,686,173.1,703.4,147.4,711.4z"></path> <path class="st38" d="M153.4,674.3c0,0,1.3-31,2-45.4c0.7-14.3,0.7-43,1-46.4c0-3.3-0.7-8.7-0.7-8.7s-4.3-7.7-9.3-7 c-4.3,0.7-21.3,11.3-27.7,14.3c-4.7,2,5.7,49,5.3,51.7c-0.7,9.3-4.7,20.3-7.3,28c-2,6-3.3,15-3.3,15S138.4,671.3,153.4,674.3z"></path> <polygon class="st37" points="147.8,564.6 151.4,567.9 156.4,573.3 153.8,579.3 145.1,566.9 "></polygon> <g> <path class="st15" d="M141.1,645.3c0,0,0.7,3.7,20.7,1.7c20.3-2.3,49.4-10,49.4-10l-47,1.3C164.1,638,146.1,639,141.1,645.3z"></path> <path class="st15" d="M195.5,640c9.7-0.7,14,3.3,18,4.3c4,1,8,2.7,8,2.7c-2.3-3.7-5.7-3.3-7.3-4.7c-1.7-1.3-1.3-0.7,2.3-1 c2-0.3,5.7,2.7,8.3,4c2.3,1.3,3.7,1.3,3.7,1.3s-2.7-3-6-5.3c-4-2.7-9-5-10.3-5.3c-2-0.7-8.7-0.3-13.3,0.7 C193.8,638,188.5,640.3,195.5,640z"></path> <path class="st15" d="M211.5,636.6c0,0,7.3,1,9,2c1,0.7,5,4,5,4s-2.7,0-4.7-1.3C219.2,639.6,211.5,636.6,211.5,636.6z"></path> </g> <path class="st37" d="M149.4,636.6l-10.3-44.7c0,0-6.3-8-10-10c-4.3-2.7-11,0-11,0s0,7.7,8,42c5.3,23.7,6.7,33.4,18,31.7 c10.3-1.7,22.3-4,22.3-4l4-16L149.4,636.6z"></path> </g> </g> <g> <g> <g> <path class="st11" d="M792.2,569.9l3.7,4.7c0,0,1.7,2.3,4,3.7s4-1,5.3-5.3c1-4,1-6.7,1-6.7s-2-4.7-4.3-2.7c-2.3,2-8.3,0-8.7,2 C793.2,567.9,792.2,569.9,792.2,569.9z"></path> <polygon class="st11" points="805.2,564.6 809.6,568.6 813.6,572.9 812.6,573.9 809.6,571.9 804.2,572.6 804.6,569.9 "></polygon> <polygon class="st11" points="808.9,574.6 811.6,579.9 810.9,581.6 807.6,576.9 803.6,574.6 804.6,569.9 "></polygon> <polygon class="st11" points="809.6,583.6 807.6,578.9 806.2,575.6 804.2,573.9 802.9,577.3 805.2,578.9 808.6,584.3 "></polygon> <polygon class="st11" points="806.9,586.3 803.9,576.9 802.2,575.9 801.2,578.3 803.6,581.6 805.9,586.3 "></polygon> </g> <path class="st11" d="M791.2,563.9c2.3,2.3,4.7,0.3,4.7,0.3s6.3-5,7.7-3.7s4.3,1,4.3,1s1.3,1-1.3,3c-1.7,1.3-3.3,1.7-3.3,1.7 s-3,5.3-4,5.7c-2.3,0.7-8-5.3-8-5.3S791.2,563.3,791.2,563.9z"></path> <path class="st35" d="M800.6,470.2c0,0-7.3-8-18.3,8.7c-7.7,11.7-9.3,19.7-11.3,26c-0.3,0.7-1.3,4-1.3,4c-2,0-1.7-0.7-2.3,1.3 c-2,6-1.3,9-1.3,9l1.3,5.3l17.7,9.7l1.3-12.3l-0.7-1.7c0,0,0.3-2.7,1.7-3.7c1.3-0.7,6-14.7,16.3-22.7 C808.2,490.9,801.2,472.5,800.6,470.2z"></path> <g> <path class="st36" d="M788.6,512.9c-1,1.7-1,2.7-2,4.7c-1.3,2.7-2,0-1-3.3c1-4.3,1.3-6.3,3.3-10c3-5.3,5.7-8.7,7.7-11.3 c2-2.7-1.3,8-2,9C791.9,504.9,791.6,506.9,788.6,512.9z"></path> </g> <path class="st15" d="M785.6,534.6c0,0-4.7,22.3,12,33.4c5,3.3-0.3,3.3-5.3,2.7c-5-0.7-16.7-13.3-20.7-32.4 c-1.3-6.3-1.3-9.7-1-11.3c0-1.7,4-0.3,5.7,0.3C781.2,529.6,785.6,534.6,785.6,534.6z"></path> <path class="st36" d="M776.5,513.9l-8.7-2.7c-1,1-1.3,4-1.3,4v4l1,4.7l1-3l10,5.3l1.3-7.3L776.5,513.9z"></path> </g> <g> <rect x="788.2" y="740.4" class="st26" width="10.7" height="16.3"></rect> <rect x="865.9" y="740.4" class="st26" width="8.7" height="16.3"></rect> <path class="st27" d="M798.6,761.1h-7.7v-2.3l-3.3,2.3h-19.7c0,0,0.3-3.3,13.7-3.7c3.3,0,5.7-4.7,5.7-4.7s1.7-1.3,4.3,2 c0.7,1,7.7-0.7,7.7-0.7S799.6,758.7,798.6,761.1z"></path> <path class="st13" d="M788.6,561.3l-1,88.1l18.7,10.3c0,0,11.3-21,12.7-47.7C820.2,584.9,788.6,561.3,788.6,561.3z"></path> <path class="st34" d="M788.6,561.3l41,96.4l7.3,10.3l28.4,80.1l10.7-3c0,0,4-44-7.3-62.7s-16.7-29-16.7-29l-24.7-94.7 L788.6,561.3z"></path> <path class="st13" d="M799.9,749.4c3.3-17.3,10.7-47.4,11-58.4c0.7-20.3-2.7-35-2.7-35l-20.3-7.3v100.4L799.9,749.4L799.9,749.4 z"></path> <path class="st27" d="M864.6,764.4h5.3l1.7-1.7l0.7-4l1.7,1.7l5.3-5.3c-1-2.7-4.7-5.3-4.7-5.3s-3.7,6.3-5,6 c-4.3-0.7-4.3,1.7-4.3,1.7S866.9,761.7,864.6,764.4z"></path> <path class="st27" d="M870.3,758.4c-1,1.3-2.3,2.3-4,2.3c-13.3,0.7-13.7,3.7-13.7,3.7h17.7L870.3,758.4L870.3,758.4z"></path> <path class="st15" d="M870.3,541.6l-18,50c0,0,4,1.3,6-0.7c6-5.3,17-20.3,20.7-28.4c5-11.3,8-23,8-23L870.3,541.6z"></path> <polygon class="st11" points="857.9,591.3 843.9,596.3 842.9,586.3 845.6,587.6 848.9,584.6 854.3,589.6 "></polygon> <path class="st35" d="M787.2,562.6l41.4-1l17-57.7c0,0,11.3-35-10.3-35.4c-21.3-0.3-46-0.3-46-0.3S775.2,480.9,787.2,562.6z"></path> <path class="st15" d="M824.9,425.2c0,0-21.7,20.3-19,27.4c0,0.3,3.7,3.7,4,7c0.3,3.3-1,5-1,6.3c0,0.3-1,3-1.3,4 c-0.7,3.7,1.3,6.7,2.7,6.3c2-0.3,9.7-3.7,11-4.3c1-0.7,2-0.7,2-2c0.7-3.3,2-8.7,3.7-10c4.7-4.7,17.7-8.7,14.3-21.7 C840.3,433.5,826.6,424.2,824.9,425.2z"></path> <polygon class="st36" points="810.9,475.5 811.9,482.9 824.9,471.9 823.6,469.2 "></polygon> <polygon class="st36" points="806.9,470.9 807.2,468.5 804.9,472.5 804.9,480.2 809.9,475.5 "></polygon> <path class="st11" d="M805.9,451.8c0,0,1,0.3,3,0.7c0.7,0,2.7,0.3,3.3,0.7c4,1.7,3.3,2,6,2.7c3,0.7,9.3,1,9.3,1 s-3.3,1.3-4.7,1.7c-2.3,1-4.3,0.7-6,0c-7-2.3-7-1.7-7.7-2.3C809.6,456.2,809.2,455.5,805.9,451.8z"></path> <path class="st15" d="M816.9,434.5c-0.3,0.3-5,2.7-5.7,3c-0.7,0.3-2,1-2,1.3c0,0.3,0,1.7,0,2c0,0.7,0.3,2.7,2,1 C813.2,440.5,816.9,434.5,816.9,434.5z"></path> <path class="st13" d="M842.6,436.5c-1.3-6.7-10.3-13.3-20.7-13c0,0-1,1.3,0,4.3c0,0,7-1.3,12,4c5,5.7-1.3,5-1,7.3 c0,2,0.3,4,0.3,4l-2,4l1.3,1.3c0,0,3.7-2.7,3.7-1c0,2-2.7,4-3,4.7c-0.3,0.3-1,1-0.7,1.3c0,0-2,1.7-4.7,5.3 c0.7,0.7,2.3,0.3,4.7-1.3C837.3,453.8,843.9,444.8,842.6,436.5z"></path> <path class="st11" d="M835.9,447.2c1.3,1,1.3,3,0.3,4.3c-1,1.3-3,1.3-4.3,0.3"></path> <path class="st11" d="M813.6,442.2c0,0-2-3-2.3-3.3c-0.3,0-1-0.7-1.3-0.3c-0.3,0.3-0.3,1.3,0.3,3.3 C809.9,442.5,810.6,441.5,813.6,442.2z"></path> <path class="st35" d="M842.9,502.2l24.4,37l3.3,0.3l-1,3l17.7-1.3l4-15l-34.4-50c0,0-10.7-9.7-28-7.3 C816.6,470.9,841.3,499.2,842.9,502.2z"></path> <path class="st36" d="M885.6,531.9c0,0-10.7,5.3-16.3,7.7h1.3l-1,3l6-0.7l8.7-2l0.3-3.7H882L885.6,531.9z"></path> </g> </g> <g> <g class="st39"> <path class="st40" d="M892.3,386.1c0,6-4.7,10.7-10.7,10.7h-66.4c-6,0-10.7-4.7-10.7-10.7v-41c0-6,4.7-10.7,10.7-10.7h66.4 c6,0,10.7,4.7,10.7,10.7V386.1z"></path> <polygon class="st40" points="820.9,407.8 820.9,396.1 832.6,396.1 "></polygon> </g> <g> <g> <path class="st8" d="M857.6,348.1h-10v-6.3h10V348.1z M849.9,345.4h5v-1.3h-5V345.4z"></path> </g> <g> <path class="st8" d="M852.6,385.8c-9.7,0-17.7-8-17.7-17.7h2.7c0,8.3,6.7,15,15,15c8.3,0,15-6.7,15-15c0-8.3-6.7-15-15-15 c-7.3,0-13.7,5.3-15,12.7l-2.7-0.3c1.3-8.7,8.7-14.7,17.3-14.7c9.7,0,17.7,8,17.7,17.7C870.3,377.8,862.3,385.8,852.6,385.8z"></path> </g> <g> <rect x="851.3" y="346.8" class="st8" width="2.7" height="5"></rect> </g> <g> <rect x="851.3" y="355.4" class="st8" width="2.7" height="14"></rect> </g> <g> <rect x="861.9" y="352" transform="matrix(0.707 -0.7072 0.7072 0.707 3.619 715.3243)" class="st8" width="6.3" height="2.7"></rect> </g> <g> <rect x="865.6" y="348.5" transform="matrix(0.7071 -0.7071 0.7071 0.7071 5.639 715.8751)" class="st8" width="2.7" height="5.3"></rect> </g> <g> <path class="st8" d="M863.9,368.1h-2.7c0-4-2.7-7.3-6.7-8.7l0.7-2.3C860.6,358.4,863.9,362.8,863.9,368.1z"></path> </g> <g> <rect x="829.9" y="366.8" class="st8" width="11.3" height="2.7"></rect> </g> <g> <rect x="822.6" y="366.8" class="st8" width="5" height="2.7"></rect> </g> <g> <rect x="822.6" y="359.4" class="st8" width="8.7" height="2.7"></rect> </g> <g> <rect x="826.2" y="374.5" class="st8" width="7.7" height="2.7"></rect> </g> </g> </g> <g id="g2303"> <path id="path46" class="st41" d="M451.1,399.5c0-12.2-3.5-18.4-10.4-18.8c-2.8-0.1-5.5,0.3-8.1,1.3c-2.1,0.8-3.5,1.5-4.3,2.3 v29.1c4.5,2.8,8.4,4.1,11.8,3.9C447.5,416.8,451.1,410.8,451.1,399.5z M459.7,400c0,6.2-1.4,11.3-4.4,15.4 c-3.3,4.7-7.8,7-13.5,7.2c-4.3,0.1-8.8-1.2-13.5-4.1v26.5l-7.5-2.6v-58.7c1.2-1.5,2.8-2.8,4.7-3.9c4.5-2.6,9.8-3.9,16.2-4 l0.1,0.1c5.8-0.1,10.3,2.3,13.4,7.2C458.3,387.3,459.7,393,459.7,400z"></path> <path id="path48" class="st41" d="M505.3,417.3c0,8.3-0.8,14.1-2.5,17.2c-1.7,3.2-4.8,5.7-9.6,7.7c-3.8,1.5-7.9,2.3-12.3,2.5 l-1.3-4.7c4.5-0.6,7.7-1.2,9.5-1.8c3.6-1.2,6.1-3.1,7.5-5.6c1.1-2.1,1.6-6,1.6-11.8v-1.9c-5.1,2.3-10.4,3.5-16,3.5 c-3.6,0-6.9-1.1-9.7-3.5c-3.1-2.5-4.7-5.7-4.7-9.6v-31l7.5-2.6v31.3c0,3.3,1.1,5.9,3.2,7.7c2.1,1.8,5,2.6,8.4,2.6 c3.4-0.1,7.1-1.4,11-4v-36.5h7.5L505.3,417.3L505.3,417.3z"></path> <path id="path50" class="st41" d="M534.4,422.2c-0.9,0.1-1.7,0.1-2.5,0.1c-4.2,0-7.5-1-9.9-3c-2.3-2-3.5-4.8-3.5-8.4v-29.4h-5.1 v-4.7h5.1v-12.5l7.4-2.6v15.1h8.4v4.7H526v29.2c0,2.8,0.8,4.8,2.3,5.9c1.3,0.9,3.3,1.5,6.1,1.6L534.4,422.2L534.4,422.2z"></path> <path id="path52" class="st41" d="M579.6,421.5h-7.5v-28.8c0-3-0.7-5.5-2.1-7.5c-1.6-2.4-3.8-3.6-6.5-3.6 c-3.4,0-7.7,1.8-12.8,5.4v34.5h-7.5v-68.9l7.5-2.3v31.3c4.8-3.5,10-5.2,15.7-5.2c4,0,7.2,1.3,9.6,4c2.5,2.6,3.7,6,3.7,9.9 L579.6,421.5L579.6,421.5z"></path> <path id="path54" class="st41" d="M619.3,398.3c0-4.7-0.9-8.6-2.6-11.6c-2.1-3.7-5.4-5.7-9.8-5.9c-8.2,0.5-12.3,6.4-12.3,17.5 c0,5.2,0.8,9.4,2.6,12.9c2.2,4.4,5.5,6.5,9.9,6.5C615.2,417.7,619.3,411.2,619.3,398.3z M627.5,398.3c0,6.7-1.7,12.2-5.1,16.7 c-3.8,5-8.9,7.4-15.5,7.4c-6.5,0-11.6-2.5-15.3-7.4c-3.3-4.4-5-10-5-16.7c0-6.3,1.8-11.6,5.4-15.9c3.8-4.5,8.8-6.9,15-6.9 c6.2,0,11.3,2.3,15.1,6.9C625.6,386.8,627.5,392.1,627.5,398.3z"></path> <path id="path56" class="st41" d="M670.2,421.5h-7.5v-30.4c0-3.3-1-5.9-3-7.8s-4.7-2.8-8.1-2.7c-3.5,0.1-6.9,1.2-10.1,3.5v37.5 h-7.5v-38.4c4.3-3.1,8.2-5.2,11.8-6.1c3.4-0.9,6.4-1.3,9-1.3c1.8,0,3.5,0.2,5,0.5c3,0.7,5.3,1.9,7.2,3.8c2.1,2,3.1,4.5,3.1,7.4 L670.2,421.5L670.2,421.5z"></path> <linearGradient id="path1948_1_" gradientUnits="userSpaceOnUse" x1="870.8293" y1="845.3442" x2="962.1334" y2="923.8992" gradientTransform="matrix(0.5625 0 0 0.568 -190.9309 -124.5432)"> <stop offset="0" style="stop-color:#5A9FD4"></stop> <stop offset="1" style="stop-color:#306998"></stop> </linearGradient> <path id="path1948" class="st42" d="M347.2,353c-3.8,0-7.5,0.3-10.8,0.9c-9.4,1.6-11.2,5.2-11.2,11.6v8.6h22.5v2.8h-22.5h-8.4 c-6.5,0-12.2,4-14,11.4c-2.1,8.6-2.1,13.9,0,22.8c1.6,6.7,5.4,11.4,12,11.4h7.7v-10.3c0-7.4,6.4-14,14-14h22.5 c6.2,0,11.3-5.2,11.3-11.4v-21.4c0-6.1-5.2-10.6-11.3-11.7C355,353.2,351,352.9,347.2,353z M335,359.8c2.3,0,4.2,1.9,4.2,4.3 c0,2.3-1.9,4.3-4.2,4.3c-2.3,0-4.2-1.9-4.2-4.3C330.8,361.8,332.7,359.8,335,359.8z"></path> <linearGradient id="path1950_1_" gradientUnits="userSpaceOnUse" x1="997.4701" y1="971.4316" x2="964.8655" y2="925.3016" gradientTransform="matrix(0.5625 0 0 0.568 -190.9309 -124.5432)"> <stop offset="0" style="stop-color:#FFD43B"></stop> <stop offset="1" style="stop-color:#FFE873"></stop> </linearGradient> <path id="path1950" class="st43" d="M372.9,376.9v10c0,7.7-6.5,14.2-14,14.2h-22.4c-6.2,0-11.3,5.3-11.3,11.4v21.4 c0,6.1,5.3,9.7,11.3,11.4c7.1,2.1,13.9,2.5,22.5,0c5.7-1.6,11.3-4.9,11.3-11.4v-8.6h-22.5v-2.8h22.5h11.3 c6.5,0,8.9-4.5,11.3-11.4c2.3-7,2.3-13.8,0-22.8c-1.6-6.5-4.7-11.4-11.3-11.4H372.9z M360.3,431.1c2.3,0,4.2,1.9,4.2,4.3 c0,2.4-1.9,4.3-4.2,4.3c-2.3,0-4.2-1.9-4.2-4.3C356.1,433,358,431.1,360.3,431.1z"></path> <path id="text3004" class="st41" d="M684.8,370.1h1.3v-8.2h3.1v-1h-7.5v1h3.1V370.1 M690.3,370.1h1.1v-7.5l2.5,7.5h1.3l2.5-7.5 v7.5h1.2V361h-1.6l-2.8,7.9l-2.3-7.9h-1.8V370.1"></path> <radialGradient id="path1894_1_" cx="-2350.5881" cy="737.4121" r="24.2978" gradientTransform="matrix(1.749057e-08 -0.2399 1.0547 3.791546e-07 -429.7583 -104.0836)" gradientUnits="userSpaceOnUse"> <stop offset="0" style="stop-color:#B8B8B8;stop-opacity:0.498"></stop> <stop offset="1" style="stop-color:#7F7F7F;stop-opacity:0"></stop> </radialGradient> <path id="path1894" class="st44" d="M378.1,459.9c0,3.2-13.5,5.8-30.1,5.8c-16.6,0-30.1-2.6-30.1-5.8c0-3.2,13.5-5.8,30.1-5.8 C364.6,454.1,378.1,456.7,378.1,459.9z"></path> </g> </g> </g> </svg> 